<?xml version="1.0" encoding="UTF-8"?>
<svg width="1226px" height="1221px" viewBox="0 0 1226 1221" version="1.1" xmlns="http://www.w3.org/2000/svg" xmlns:xlink="http://www.w3.org/1999/xlink">
    <title>Artboard</title>
    <defs>
        <path d="M116.91665,873.105946 C88.6166498,868.705946 70.5166498,859.405946 50.4166498,839.105946 C39.1166498,827.705946 30.4166498,815.805946 23.6166498,802.505946 C21.4166498,798.405946 19.3166498,794.605946 18.8166498,794.105946 C18.3166498,793.505946 17.9166498,792.505946 17.9166498,791.805946 C17.9166498,791.005946 17.0166498,788.505946 15.8166498,786.205946 C14.7166498,783.905946 13.6166498,781.305946 13.4166498,780.405946 C13.2166498,779.505946 11.7166498,774.305946 10.0166498,768.905946 C6.21664976,756.305946 5.31664976,752.305946 2.31664976,734.005946 C0.216649763,720.805946 -0.0833502375,715.905946 0.0166497625,694.005946 C0.0166497625,679.005946 0.616649763,663.805946 1.51664976,656.005946 C4.61664976,629.405946 15.0166498,591.105946 25.8166498,567.305946 C38.0166498,540.205946 46.9166498,524.805946 62.2166498,504.305946 C92.7166498,463.505946 132.91665,436.105946 173.31665,428.805946 C192.81665,425.305946 211.51665,426.705946 231.21665,433.105946 C253.91665,440.605946 278.11665,460.305946 293.31665,483.705946 C311.01665,511.005946 321.11665,541.605946 325.41665,580.505946 C326.01665,586.205946 326.01665,624.905946 325.31665,633.505946 C324.61665,642.605946 322.01665,660.805946 320.31665,668.305946 C319.61665,671.705946 318.71665,676.005946 318.41665,677.805946 C317.81665,681.305946 312.11665,700.705946 308.41665,712.005946 C302.91665,728.605946 289.91665,755.905946 279.61665,772.505946 C274.51665,780.705946 260.51665,801.005946 258.91665,802.505946 C258.61665,802.805946 256.31665,805.505946 253.81665,808.505946 C242.21665,822.205946 227.81665,835.505946 213.41665,845.605946 C202.61665,853.205946 178.71665,865.605946 172.41665,866.905946 C171.91665,867.105946 168.31665,868.105946 164.41665,869.205946 C149.51665,873.705946 130.51665,875.205946 116.91665,873.105946 Z" id="path-1"></path>
    </defs>
    <g id="Artboard" stroke="none" stroke-width="1" fill="none" fill-rule="evenodd">
        <g id="Group" transform="translate(612.960931, 610.221062) scale(-1, 1) rotate(-180.000000) translate(-612.960931, -610.221062) translate(34.000000, 25.000000)" fill-rule="nonzero">
            <path d="M758.91665,1170.20595 C758.61665,1169.90595 755.01665,1169.50595 750.81665,1169.20595 C734.01665,1168.10595 709.01665,1157.90595 691.01665,1144.90595 C680.61665,1137.40595 663.31665,1121.70595 656.91665,1113.90595 C647.71665,1102.90595 640.41665,1093.30595 638.51665,1089.90595 C637.61665,1088.30595 634.81665,1083.90595 632.31665,1080.00595 C629.81665,1076.20595 626.91665,1071.20595 625.81665,1069.00595 C624.71665,1066.80595 623.31665,1064.10595 622.61665,1062.90595 C616.41665,1052.20595 605.61665,1025.50595 600.41665,1008.00595 C592.01665,979.605946 587.71665,949.305946 587.61665,917.505946 C587.41665,874.505946 595.71665,835.605946 612.21665,801.505946 C623.11665,779.005946 641.01665,756.705946 657.41665,745.105946 C664.91665,739.905946 681.41665,730.505946 683.21665,730.505946 C683.91665,730.505946 684.91665,730.105946 685.51665,729.605946 C686.41665,728.705946 698.21665,725.105946 703.41665,724.005946 C705.11665,723.705946 711.41665,723.205946 717.61665,722.805946 C761.71665,720.405946 805.91665,745.205946 841.01665,792.005946 C868.91665,829.205946 890.91665,886.205946 895.91665,934.005946 C896.41665,939.005946 897.01665,944.605946 897.31665,946.505946 C897.61665,948.405946 898.11665,959.005946 898.41665,970.005946 C899.01665,989.505946 897.71665,1011.10595 895.01665,1025.00595 C894.51665,1027.80595 893.51665,1032.90595 892.91665,1036.50595 C887.01665,1068.20595 872.61665,1100.00595 852.61665,1125.30595 C836.11665,1146.20595 812.11665,1161.60595 785.21665,1168.50595 C780.91665,1169.60595 759.71665,1171.00595 758.91665,1170.20595 Z" id="Path" stroke="#FFFFFF" stroke-width="35" fill="#099D8D"></path>
            <path d="M352.91665,1161.00595 C323.11665,1154.30595 299.51665,1139.10595 281.31665,1115.00595 C276.11665,1108.10595 265.91665,1092.20595 265.91665,1091.00595 C265.91665,1090.80595 264.61665,1087.80595 263.01665,1084.30595 C253.91665,1064.50595 247.21665,1039.00595 245.11665,1015.50595 C243.71665,1000.60595 244.51665,958.705946 246.31665,946.505946 C250.51665,918.805946 258.91665,888.605946 269.31665,864.105946 C277.71665,844.205946 295.61665,813.405946 306.01665,800.905946 C307.91665,798.705946 310.81665,795.105946 312.41665,792.905946 C317.61665,786.205946 335.01665,769.305946 344.91665,761.505946 C353.61665,754.605946 365.21665,746.505946 366.31665,746.505946 C366.61665,746.505946 368.81665,745.205946 371.21665,743.605946 C373.51665,741.905946 377.31665,740.005946 379.51665,739.205946 C381.61665,738.405946 386.51665,736.605946 390.41665,735.105946 C409.71665,727.905946 429.91665,725.405946 450.91665,727.705946 C467.81665,729.605946 491.31665,740.405946 505.51665,752.805946 C529.21665,773.505946 544.21665,798.805946 554.81665,836.005946 C558.81665,850.405946 561.81665,869.905946 562.61665,887.005946 C562.81665,894.205946 563.11665,900.505946 563.11665,901.005946 C563.31665,904.905946 561.71665,931.505946 560.81665,938.005946 C559.91665,944.905946 556.91665,963.105946 555.51665,970.305946 C554.21665,976.405946 548.11665,996.505946 543.71665,1009.00595 C535.21665,1032.80595 523.71665,1055.50595 507.01665,1081.00595 C503.71665,1086.00595 489.41665,1103.30595 482.31665,1110.70595 C464.21665,1129.70595 438.61665,1147.20595 417.91665,1154.70595 C402.21665,1160.40595 395.01665,1161.60595 376.91665,1162.10595 C363.91665,1162.40595 357.71665,1162.10595 352.91665,1161.00595 Z" id="Path" stroke="#FFFFFF" stroke-width="35" fill="#099D8D"></path>
            <path d="M1016.41665,896.505946 C989.81665,893.005946 963.91665,879.205946 939.61665,855.605946 C935.81665,852.005946 929.11665,844.605946 924.81665,839.205946 C920.41665,833.705946 916.31665,828.805946 915.81665,828.205946 C914.61665,826.805946 907.31665,815.505946 904.01665,810.005946 C888.81665,784.405946 873.11665,746.705946 867.91665,723.505946 C856.51665,672.105946 855.61665,664.905946 855.61665,624.005946 C855.71665,589.605946 856.61665,580.005946 862.51665,552.505946 C863.91665,546.205946 865.21665,539.905946 865.51665,538.505946 C867.81665,526.705946 878.51665,497.805946 884.61665,486.505946 C902.11665,454.305946 918.41665,436.905946 943.91665,422.805946 C957.21665,415.405946 978.61665,410.705946 993.01665,411.905946 C1019.11665,414.105946 1044.41665,425.705946 1068.31665,446.505946 C1075.11665,452.405946 1088.31665,467.005946 1095.41665,476.505946 C1098.11665,480.105946 1100.71665,483.505946 1101.11665,484.005946 C1106.31665,490.505946 1119.01665,513.605946 1126.71665,530.505946 C1132.11665,542.305946 1140.81665,566.205946 1143.01665,575.005946 C1143.41665,576.705946 1145.01665,583.205946 1146.71665,589.505946 C1150.31665,603.305946 1152.21665,613.505946 1154.81665,631.505946 C1157.61665,651.105946 1157.91665,655.505946 1157.91665,685.105946 C1158.01665,717.605946 1156.71665,731.305946 1150.61665,762.005946 C1148.71665,771.905946 1140.81665,797.005946 1136.91665,806.005946 C1134.61665,811.205946 1124.81665,831.405946 1123.11665,834.105946 C1115.91665,846.405946 1100.01665,865.405946 1090.41665,873.305946 C1081.11665,880.905946 1057.81665,893.505946 1053.01665,893.505946 C1051.91665,893.505946 1050.81665,893.905946 1050.51665,894.305946 C1050.21665,894.805946 1048.51665,895.205946 1046.71665,895.305946 C1044.91665,895.405946 1041.01665,895.905946 1038.01665,896.505946 C1032.01665,897.605946 1025.31665,897.605946 1016.41665,896.505946 Z" id="Path" stroke="#FFFFFF" stroke-width="35" fill="#099D8D"></path>
            <g id="Path">
                <use fill="#099D8D" xlink:href="#path-1"></use>
                <use stroke="#979797" stroke-width="1" xlink:href="#path-1"></use>
                <use stroke="#FFFFFF" stroke-width="35" xlink:href="#path-1"></use>
            </g>
            <path d="M572.91665,708.805946 C539.81665,706.905946 509.11665,694.705946 482.41665,673.005946 C472.81665,665.205946 465.11665,656.805946 462.91665,651.905946 C461.91665,649.605946 459.91665,645.105946 458.41665,641.905946 C456.91665,638.705946 454.41665,633.205946 452.81665,629.805946 C443.11665,608.605946 437.41665,596.605946 435.61665,593.505946 C434.81665,592.105946 431.61665,585.805946 428.41665,579.505946 C425.31665,573.205946 419.21665,561.005946 414.91665,552.505946 C408.01665,538.705946 386.01665,498.505946 379.41665,487.705946 C378.81665,486.805946 377.11665,483.805946 375.51665,481.005946 C373.81665,478.305946 371.31665,474.205946 369.81665,472.005946 C368.41665,469.805946 365.71665,465.405946 364.01665,462.305946 C358.71665,452.405946 326.21665,402.605946 311.21665,381.305946 C307.51665,376.005946 302.21665,368.405946 299.41665,364.505946 C296.71665,360.505946 292.61665,355.005946 290.41665,352.205946 C288.21665,349.405946 284.61665,344.505946 282.41665,341.305946 C277.61665,334.505946 254.41665,304.005946 251.31665,300.505946 C240.61665,288.505946 227.71665,270.805946 224.11665,263.405946 C211.01665,236.105946 205.01665,206.605946 206.21665,175.405946 C207.01665,156.805946 207.31665,154.305946 210.61665,139.005946 C216.41665,112.105946 226.81665,88.6059463 242.31665,67.0059463 C245.11665,63.2059463 248.11665,59.3059463 248.91665,58.4059463 C249.71665,57.6059463 253.51665,53.6059463 257.31665,49.6059463 C280.41665,25.0059463 312.51665,8.00594632 346.41665,2.40594632 C357.31665,0.605946316 362.01665,0.405946316 374.91665,0.805946316 C393.61665,1.50594632 402.21665,3.20594632 427.51665,11.4059463 C452.21665,19.3059463 487.31665,27.9059463 503.91665,30.1059463 C505.81665,30.4059463 511.61665,31.2059463 516.61665,32.1059463 C521.71665,32.9059463 528.01665,33.8059463 530.61665,34.0059463 C533.31665,34.2059463 539.21665,34.8059463 543.91665,35.3059463 C556.81665,36.6059463 598.81665,36.4059463 612.41665,34.9059463 C619.01665,34.2059463 627.61665,33.4059463 631.41665,33.0059463 C635.31665,32.6059463 641.61665,31.7059463 645.41665,30.9059463 C649.31665,30.1059463 656.21665,28.7059463 660.91665,27.9059463 C665.61665,27.1059463 671.01665,26.0059463 672.91665,25.5059463 C674.81665,25.0059463 682.91665,22.9059463 690.91665,20.9059463 C705.11665,17.4059463 725.31665,11.3059463 735.61665,7.50594632 C756.71665,-0.294053684 796.31665,-2.39405368 822.21665,3.00594632 C853.71665,9.50594632 887.81665,27.6059463 910.91665,50.0059463 C950.11665,88.0059463 970.21665,128.205946 977.81665,183.505946 C979.41665,195.005946 978.31665,232.505946 976.01665,245.805946 C971.61665,270.805946 964.41665,292.705946 953.81665,313.205946 C950.51665,319.505946 925.61665,358.205946 924.01665,359.505946 C923.61665,359.805946 920.41665,364.305946 916.91665,369.505946 C913.41665,374.705946 906.41665,384.905946 901.41665,392.005946 C896.31665,399.205946 890.01665,408.205946 887.31665,412.105946 C884.61665,416.005946 879.91665,422.505946 876.81665,426.605946 C872.01665,433.105946 860.01665,449.405946 855.11665,456.305946 C854.21665,457.605946 850.71665,462.405946 847.31665,466.805946 C844.01665,471.305946 837.91665,479.505946 833.81665,485.005946 C824.11665,498.005946 808.31665,518.205946 786.41665,545.605946 C778.41665,555.505946 771.91665,563.505946 752.91665,586.005946 C750.11665,589.305946 747.51665,592.505946 747.11665,593.005946 C744.41665,596.405946 724.91665,618.805946 721.01665,623.005946 C718.51665,625.805946 713.31665,631.605946 709.51665,636.005946 C676.41665,674.905946 665.31665,683.905946 633.91665,697.805946 C617.21665,705.205946 591.11665,709.905946 572.91665,708.805946 Z" id="Path" stroke="#FFFFFF" stroke-width="35" fill="#099D8D"></path>
        </g>
    </g>
</svg>